:SAMPLES-PER-SECOND 30
:FRAME-RANGE 1-1390
:FULLY-SPECIFIED
:DEGREES
1043
root  21.3015 41.227 -29.063 -4.80096 -53.5981 4.99802
RightUpLeg  -88.9418 -9.2607 58.9091
RightLeg  118.666 2.39694 -3.31924
RightFoot  -36.8818 0.46925 3.18282
RightToes  6.35937e-011 1.2921e-014 -6.02303e-014
Spine  19.4447 -3.34192 0.97696
Spine1  -3.02514 -0.351351 -2.97233
HEad  -3.2829 -49.1721 17.7648
LeftShoulder1  3.38461 -12.0356 -15.5016
LeftArm  38.9375 -23.8605 -62.5722
LeftForeArm  32.1661 -5.4717 -16.5304
LeftHand  -0.0250447 4.85775 -0.395407
RightShoulder  2.52478 6.92839 18.2436
RightArm  4.92111 34.9719 100.251
RightForeArm  110.055 -4.29774 8.34901
RightHand  1.63404 -19.1007 -14.0754
LeftUpLeg  -15.8633 -13.1542 -4.13996
LeftLeg  21.1222 2.26284 1.69892
LeftFoot  -16.3558 -0.176013 -6.25178
LeftToes  4.52251e-011 4.07896e-011 -5.42348e-012
1044
root  20.3127 40.2441 -28.1269 -3.61746 -55.1219 5.83176
RightUpLeg  -88.4623 -9.00294 57.9146
RightLeg  118.726 3.9125 -5.84117
RightFoot  -36.5657 0.366722 2.75589
RightToes  6.35937e-011 1.2921e-014 -6.02303e-014
Spine  20.172 -3.39707 0.757956
Spine1  -2.9547 -0.451515 -2.81567
HEad  -7.44567 -48.7186 20.7524
LeftShoulder1  3.41123 -12.2815 -15.3062
LeftArm  36.7702 -23.5655 -62.6672
LeftForeArm  33.1515 -4.43146 -16.735
LeftHand  -0.023576 4.72584 -0.222951
RightShoulder  2.44422 6.4406 18.6807
RightArm  4.63831 34.8745 100.92
RightForeArm  111.506 -4.17403 7.99947
RightHand  1.66415 -19.3565 -14.0649
LeftUpLeg  -20.4778 -10.0121 -4.3337
LeftLeg  17.9708 3.29126 3.5145
LeftFoot  -16.664 -0.190962 -6.25046
LeftToes  4.52251e-011 4.07896e-011 -5.42348e-012
1045
root  19.2293 38.7643 -27.0205 -4.28198 -57.1494 6.51215
RightUpLeg  -87.2802 -9.44699 57.502
RightLeg  120.084 6.45782 -9.49824
RightFoot  -36.4096 0.107373 1.60203
RightToes  6.35937e-011 1.2921e-014 -6.02303e-014
Spine  20.8373 -3.28437 1.02182
Spine1  -2.04933 -0.346921 -2.8754
HEad  -9.39201 -49.1401 21.1328
LeftShoulder1  3.34776 -12.1697 -15.0309
LeftArm  41.1186 -22.5015 -62.9097
LeftForeArm  28.3814 -6.68396 -16.2728
LeftHand  -0.0215405 4.49355 -0.090517
RightShoulder  2.50163 6.65725 18.7168
RightArm  4.85913 34.6465 100.68
RightForeArm  113.196 -4.1308 8.22301
RightHand  1.71903 -19.9497 -13.9284
LeftUpLeg  -23.5181 -15.3764 -1.96242
LeftLeg  21.393 5.72567 3.38306
LeftFoot  -13.2141 -0.0636296 -8.71556
LeftToes  4.52251e-011 4.07896e-011 -5.42348e-012
1046
root  18.1227 36.9444 -25.8095 -6.64044 -59.0973 6.9043
RightUpLeg  -86.3441 -10.7852 57.7547
RightLeg  122.268 8.97128 -12.2615
RightFoot  -36.3187 -0.13952 0.490222
RightToes  6.35937e-011 1.2921e-014 -6.02303e-014
Spine  22.4585 -3.76224 1.94647
Spine1  -1.7528 -0.549605 -3.71173
HEad  -10.8832 -49.5567 21.4949
LeftShoulder1  3.17384 -11.7693 -14.3978
LeftArm  41.3484 -20.9883 -63.0977
LeftForeArm  27.036 -8.36042 -15.4679
LeftHand  -0.0182368 4.11453 0.0174939
RightShoulder  2.50042 6.29108 19.7347
RightArm  5.65366 33.9577 100.357
RightForeArm  117.653 -4.04932 9.00632
RightHand  1.59276 -21.1661 -12.0136
LeftUpLeg  -28.0291 -11.869 -4.01032
LeftLeg  37.2287 3.61474 3.33557
LeftFoot  -8.47169 0.0584573 -0.301523
LeftToes  4.52251e-011 4.07896e-011 -5.42348e-012
1047
root  16.7886 35.9011 -24.6995 -12.3578 -61.3297 10.2877
RightUpLeg  -83.6723 -13.56 56.4074
RightLeg  122.824 9.98897 -13.384
RightFoot  -35.9741 -0.397881 -0.697369
RightToes  6.35937e-011 1.2921e-014 -6.02303e-014
Spine  22.5967 -3.08094 1.58225
Spine1  1.13933 0.0676057 -4.34039
HEad  -13.8563 -50.3075 20.8527
LeftShoulder1  3.12142 -11.4758 -14.469
LeftArm  37.855 -20.9672 -63.9708
LeftForeArm  30.4738 -7.26359 -15.6543
LeftHand  -0.0285392 5.0204 0.944662
RightShoulder  2.61217 6.69649 19.8055
RightArm  6.71039 34.4137 99.2571
RightForeArm  118.445 -4.1332 9.76766
RightHand  1.77129 -21.3789 -13.0878
LeftUpLeg  -26.8763 -11.8853 -7.10195
LeftLeg  47.2519 5.25206 6.50698
LeftFoot  -15.3176 0.0628402 -0.836211
LeftToes  4.52251e-011 4.07896e-011 -5.42348e-012
